<svg width="37" height="37" viewBox="0 0 37 37" fill="none" xmlns="http://www.w3.org/2000/svg">
<g filter="url(#filter0_di_8_50)">
<path d="M30.9286 11.3929H21.6071V2.07143C21.6071 0.927612 20.6795 0 19.5357 0H17.4643C16.3205 0 15.3929 0.927612 15.3929 2.07143V11.3929H6.07143C4.92761 11.3929 4 12.3205 4 13.4643V15.5357C4 16.6795 4.92761 17.6071 6.07143 17.6071H15.3929V26.9286C15.3929 28.0724 16.3205 29 17.4643 29H19.5357C20.6795 29 21.6071 28.0724 21.6071 26.9286V17.6071H30.9286C32.0724 17.6071 33 16.6795 33 15.5357V13.4643C33 12.3205 32.0724 11.3929 30.9286 11.3929Z" fill="#EC6B0E" fill-opacity="0.53" shape-rendering="crispEdges"/>
</g>
<defs>
<filter id="filter0_di_8_50" x="0" y="0" width="37" height="37" filterUnits="userSpaceOnUse" color-interpolation-filters="sRGB">
<feFlood flood-opacity="0" result="BackgroundImageFix"/>
<feColorMatrix in="SourceAlpha" type="matrix" values="0 0 0 0 0 0 0 0 0 0 0 0 0 0 0 0 0 0 127 0" result="hardAlpha"/>
<feOffset dy="4"/>
<feGaussianBlur stdDeviation="2"/>
<feComposite in2="hardAlpha" operator="out"/>
<feColorMatrix type="matrix" values="0 0 0 0 0 0 0 0 0 0 0 0 0 0 0 0 0 0 0.25 0"/>
<feBlend mode="normal" in2="BackgroundImageFix" result="effect1_dropShadow_8_50"/>
<feBlend mode="normal" in="SourceGraphic" in2="effect1_dropShadow_8_50" result="shape"/>
<feColorMatrix in="SourceAlpha" type="matrix" values="0 0 0 0 0 0 0 0 0 0 0 0 0 0 0 0 0 0 127 0" result="hardAlpha"/>
<feOffset dy="4"/>
<feGaussianBlur stdDeviation="2"/>
<feComposite in2="hardAlpha" operator="arithmetic" k2="-1" k3="1"/>
<feColorMatrix type="matrix" values="0 0 0 0 0 0 0 0 0 0 0 0 0 0 0 0 0 0 0.25 0"/>
<feBlend mode="normal" in2="shape" result="effect2_innerShadow_8_50"/>
</filter>
</defs>
</svg>
