<svg width="19" height="17" viewBox="0 0 19 17" fill="none" xmlns="http://www.w3.org/2000/svg">
<path d="M9.50019 7.28587C6.55336 7.28587 2.37526 11.9441 2.37526 14.8845C2.37526 16.2088 3.37015 17 5.03746 17C6.84986 17 8.04663 16.0483 9.50019 16.0483C10.9664 16.0483 12.1665 17 13.9629 17C15.6302 17 16.6251 16.2088 16.6251 14.8845C16.6251 11.9441 12.447 7.28587 9.50019 7.28587ZM4.03477 6.80737C3.64884 5.49255 2.45987 4.64104 1.37925 4.90515C0.298641 5.16925 -0.264302 6.44916 0.121631 7.76399C0.507565 9.07881 1.69654 9.93031 2.77715 9.66621C3.85776 9.40211 4.42071 8.12219 4.03477 6.80737ZM7.17865 6.01886C8.3268 5.70998 8.90125 4.12384 8.46188 2.47623C8.02251 0.828625 6.73557 -0.256246 5.58741 0.0526328C4.43926 0.361512 3.86481 1.94765 4.30419 3.59526C4.74356 5.24286 6.03087 6.32811 7.17865 6.01886ZM17.6207 4.90553C16.5401 4.64142 15.3515 5.49293 14.9652 6.80775C14.5793 8.12257 15.1422 9.40249 16.2228 9.66659C17.3035 9.93069 18.4921 9.07919 18.8784 7.76436C19.2643 6.44954 18.7014 5.16963 17.6207 4.90553ZM11.8217 6.01886C12.9699 6.32774 14.2568 5.24286 14.6962 3.59526C15.1356 1.94765 14.5611 0.361891 13.413 0.0526328C12.2648 -0.256626 10.9779 0.828625 10.5385 2.47623C10.0991 4.12384 10.6736 5.70998 11.8217 6.01886Z" fill="#EC6B0E" fill-opacity="0.6"/>
</svg>
